<svg xmlns="http://www.w3.org/2000/svg" viewBox="0 0 1280 1280" preserveAspectRatio="xMidYMid meet" fill="currentColor" id="icon">
	<path d="M687.5 161.9l-39.9 152.9-12.6.4c-6.9.2-12.8.2-13.1-.1-.4-.3-18.1-67.2-39.4-148.6L540.6 11c-.6-.1-14.7 2.5-31.4 5.7l-30.3 5.8.5 3c.3 1.6 9.3 71.6 20.1 155.5l19.9 154.5c.4 1.7-1.1 2.7-10.2 6.5l-10.8 4.5-94.3-122.2-97-125.4-2.7-3.2-26.2 17.7-26.2 18c0 .1 36 61.8 80 137l80 137-16.5 17.5-135-78.9-136-79c-.5.1-8.9 11.8-18.5 26.1-17.4 26-17.4 26.1-15.3 27.7l125.1 96.6 122.8 94.8-4.3 10.7c-4.1 10.1-4.4 10.6-7 10.4l-154.7-19.8-152.7-18.8c-.9 1.1-12.1 59.2-11.6 60.6.2.7 68.3 19 151.3 40.7l150.9 39.5.6 26.1L9.3 738.5l6 31 6.1 31.2c.1.1 70.1-8.8 155.5-19.8l155.6-19.7c.1.2 2.3 5.2 4.9 11.3 3.6 8.6 4.3 11.2 3.3 12.1-.6.6-55.6 43.1-122.2 94.4L96.6 973.1c-.9.7 33.1 52 34.9 52.6.6.1 61.3-35 135-78.2l134-78.4 8.4 8.3 8.4 8.4-78.2 133.5-78.6 134.9c-.6 1.5 50.2 36.1 52.1 35.4.6-.2 43.9-55.8 96-123.5L504.3 943c1.9-.1 22.6 8.6 22.7 9.4 0 1.5-38.9 304.8-39.5 307.1-.4 2 1.3 2.4 30.8 8.2l31.4 5.9c.3-.2 79.3-301.7 79.3-302.3 0-.2 5.8-.3 12.9-.3 11.4 0 12.9.2 13.3 1.7.3 1 18 68.6 39.3 150.3l39.5 149.3c1.1 1.2 61.1-10.5 61.7-12 .4-1.1-37.9-303.1-39.2-308.9-.4-1.7.9-2.6 9.8-6.3 5.6-2.4 11-4.4 11.9-4.4 1.2-.1 31.5 38.4 96.3 122.3l95.8 122.7c1.5.3 52.3-34.2 52-35.3-.1-.5-35.5-61.4-78.8-135.3l-78.7-134.4 16-16 133.5 78.2 135 78.6c1 .4 6.4-6.8 18.5-24.8l17.4-26.4c.2-.7-204.4-159.6-247-191.9-.2-.1 1.8-5.7 4.5-12.3 4.5-11.5 4.9-12.1 7.3-11.6 6.1 1.2 307.3 39.6 308.8 39.3 1.2-.2 2.8-6.7 7.4-30.7 3.3-16.6 5.7-30.5 5.4-30.8-.2-.3-67.4-18-149.3-39.4l-155.8-40.8-.4-24.8 148.2-38.7 148.8-39.4c.6-.6-10.8-61.2-11.5-62-.2-.1-68.7 8.5-152.2 19.3l-153.2 19.3c-1.1-.3-10.7-20.9-9.9-21.3 2-1.3 249.7-192.7 249.7-193 0-.7-35.1-52.5-35.6-52.5-.2 0-61.6 35.8-136.5 79.6l-136 79.6-8.8-8.3c-4.9-4.6-8.9-8.7-9-9.1 0-.4 35.5-61.6 79-135.9l78.2-135.9c-2.5-2.4-51.7-34.9-52.2-34.6-.3.3-43.8 56.4-96.6 124.8l-96 124.4-11.2-4.6c-6.2-2.4-11.3-4.9-11.3-5.3 0-.5 9-70.9 20-156.4l19.7-155.9c-.2-.3-62-12.5-62.2-12.4l-40 152.9z"/>
</svg>
