<svg xmlns="http://www.w3.org/2000/svg" xmlns:xlink="http://www.w3.org/1999/xlink" viewBox="0 0 354 470" preserveAspectRatio="xMidYMid meet" id = "icon">
	<g fill="currentColor"><path d="M156.4 6c-2.8 1.1-6.1 5.4-6.9 8.9-.8 3.8 1.6 9.5 5.1 11.8 1.6 1 4.6 1.8 7.2 1.8 3.8 0 4.8-.5 7.8-3.7 2.5-2.8 3.4-4.7 3.4-7.3 0-9.1-8.3-14.9-16.6-11.5zm-2.3 34.6c-1.7 1.4-3.6 4.3-4.2 6.4-2.5 8.3 5.8 16.6 14.1 14.1C177.7 57 174.9 38 160.6 38c-2.2 0-4.5.9-6.5 2.6zm-32.2 31.9c-3.6 1.9-6.3 7.8-5.5 12 2 10.6 15.3 13.5 21.3 4.6 7-10.4-4.7-22.7-15.8-16.6zm33.9 0c-6.1 3.4-7.7 12.4-3 17.5 5.5 6.2 15.2 4.7 18.8-2.8 4.4-9.3-6.8-19.7-15.8-14.7zm63.6 1.9c-2.8 2.8-3.4 4.2-3.4 7.6 0 11.2 11.8 16.4 19.6 8.6 2.9-2.9 3.4-4.1 3.4-8.1s-.5-5.2-3.4-8.1-4.1-3.4-8.1-3.4-5.2.5-8.1 3.4z"/><use xlink:href="#B"/><path d="M155.2 105.3c-7.4 4.2-7.5 16.4 0 20.3 4.6 2.4 10.3 1.8 14-1.5 3-2.7 3.3-3.5 3.3-8.6s-.3-5.9-3.3-8.6c-2.5-2.3-4.2-2.9-7.5-2.9-2.3.1-5.2.6-6.5 1.3z"/><use xlink:href="#C"/><use xlink:href="#C" x="33"/><path d="M91 137.3c-3.9 1.4-8 6.7-8 10.4 0 3.9 3 9.3 6.1 10.8 11 5.7 22.3-5.8 15.9-16.2-3-5-8.2-6.9-14-5zm33.3-.2c-6.4 1.8-9.8 9.9-6.9 16.1 5.8 12.1 24.1 6.8 22.3-6.4-1-7.5-7.9-11.8-15.4-9.7zm34.2-.4c-6.6 1.7-10.6 8.6-8.5 14.8 4.5 13.7 24.6 9.5 22.7-4.7-.6-4.6-2.9-7.5-7.4-9.4-3.4-1.5-3.6-1.5-6.8-.7zm32.8 0c-3.1.6-7.9 5.6-8.6 8.9-2.1 11.1 11.1 19 19.4 11.6 4.3-3.9 5.2-11.3 1.8-15.6-2-2.6-7.7-5.8-9.6-5.5-.4.1-1.8.4-3 .6z"/><path d="M225 136.7c-6.4 2.1-9 5.6-9 12.4 0 3.3.6 4.7 3.4 7.5 2.9 2.9 4.1 3.4 8.1 3.4s5.2-.5 8.1-3.4 3.4-4.1 3.4-7.9c0-5.3-2.7-9.3-7.6-11.3-3.5-1.5-4-1.5-6.4-.7zM24.5 170.4c-4.3 1.9-6.6 4.9-7.2 9.4-1.5 10.9 10.9 17.4 19.1 10.1 4.3-3.7 5.4-8.1 3.3-13.2-2.6-6-9.5-8.9-15.2-6.3zm98.5.4c-4.5 2.2-7.5 7.9-6.6 12.7.9 4.7 6.6 9.5 11.2 9.5 7.8 0 13.1-5.8 12.1-13.2-.6-4.6-2.9-7.5-7.4-9.4-4.2-1.8-5.1-1.8-9.3.4zm33 0c-5 2.5-7.6 8.1-6.1 13.2s6.2 9 10.7 9c13.5 0 17.2-17.4 4.8-22.6-4.3-1.8-5.2-1.8-9.4.4zm33.5-.5c-10.7 4.9-8.4 20.8 3.2 22.4 7.5 1 13.3-4.3 13.3-12.2 0-7.6-9.4-13.4-16.5-10.2zm33 .3c-4.6 2.3-6.5 5.3-6.5 10.6 0 11 12.2 15.8 20.1 7.8 5.2-5.2 3.4-15.1-3.5-18.4-4.2-2-6.3-2-10.1 0zm32.7.1c-4.1 2-6.2 5.9-6.2 11.3 0 10.2 13.8 14.8 20.4 6.9 4.8-5.7 2.9-15.1-3.8-18.3-4.2-2-6.2-2-10.4.1zm33.2-.1c-11.8 5.8-6.1 23.8 7 22.1 11.4-1.6 13.6-17.9 2.9-22.3-4.1-1.8-6-1.7-9.9.2zM57.5 203c-4.4 1.8-7 5.9-7 11.1 0 4.2.5 5.3 3.3 8.1s3.9 3.3 8.2 3.3c4 0 5.4-.5 7.9-2.9 1.7-1.6 3.4-4.5 3.7-6.4 1.7-8.7-8-16.6-16.1-13.2zm31.7.9c-6.9 4.4-7.9 13.1-2.1 18.7 2.5 2.4 3.9 2.9 7.9 2.9 4.3 0 5.4-.5 8.2-3.3s3.3-3.9 3.3-8.2c0-4.2-.5-5.4-3.1-8.1-4.1-4-9.6-4.8-14.2-2zm33 .1c-4.5 2.8-6.7 8.2-5.3 13 4.2 14 24.7 10.1 22.8-4.3-1.1-8.5-10.5-13.1-17.5-8.7zm33 0c-4.5 2.8-6.8 8.2-5.3 13 4 13.4 23.1 10.8 23.1-3 0-4.3-2.7-8.7-6.6-10.5-4.3-2-7.3-1.9-11.2.5zm34.1-.5c-3.8 1.6-6.3 6-6.3 11 0 8.7 9.1 14.1 17 10 4.1-2.1 6-5.3 6-10.3 0-5.2-2.3-9-6.7-10.8-4-1.7-5.9-1.7-10 .1zm33.1-.1c-4.4 1.9-6.4 5.3-6.4 10.6 0 5.2 1.8 8.3 6 10.5 10.5 5.5 21-5.8 15.4-16.6-1.5-3-6.6-5.9-10.1-5.9-1 .1-3.2.7-4.9 1.4zm32.9.1c-3.8 1.6-6.3 6-6.3 11.2 0 4.5 2 7.7 6 9.8 5.3 2.8 12 1.1 15.4-3.7 2.1-3 2-10.2-.1-13.5-1.8-2.6-6.8-5.3-10-5.3-1 .1-3.2.7-5 1.5zm32.9.2c-10.6 5.2-6.5 22.3 5.3 22.3 3.4 0 8-2.4 9.9-5.2 2.1-2.9 2-10.7 0-13.7-1.7-2.4-7.1-5.1-10.1-5.1-1 0-3.3.8-5.1 1.7z"/><path d="M321.4 203.6c-10.8 5.3-6.8 22.4 5.3 22.4 4.1 0 9.2-3.6 10.9-7.6 2.1-5 .2-11-4.5-14.1-3.9-2.7-7.3-2.9-11.7-.7zm-299.7 1.7c-7.9 6.4-3.5 19.7 6.6 20 7 .2 11.7-4.5 11.7-11.9 0-2.8-.8-4.4-3.4-7-2.8-2.8-4.1-3.4-7.7-3.4-3.1 0-5.2.7-7.2 2.3zm1.7 31.2c-10.1 5.2-7.2 20.7 4.2 22.2 7.2.9 14.7-7.2 13-14.2-1.8-7.3-10.6-11.4-17.2-8zm34.1-.6c-7.4 3.3-9.6 13.3-4.1 19 7.8 8.2 21.6 1.8 20.2-9.3-.9-7.3-9.6-12.6-16.1-9.7zm33 0c-6.4 2.8-9.2 11.1-5.6 16.9 4.4 6.9 13.1 7.9 18.7 2.1 2.4-2.5 2.9-3.9 2.9-7.9 0-4.2-.5-5.4-3.1-8.1-3.3-3.3-9.2-4.6-12.9-3zm32.9.1c-2.8 1.1-6.1 5.4-6.9 8.9-.9 4.1 1.8 9.7 5.7 12.1 7 4.4 16.4-.2 17.5-8.7 1.2-9-7.8-15.8-16.3-12.3zm33 .4c-4.4 2-6.4 5.3-6.4 10.7 0 11 12.4 15.5 20.1 7.3 1.9-2 2.4-3.7 2.4-7.5 0-4.1-.5-5.3-3-7.9-3.7-3.6-8.7-4.6-13.1-2.6zm32.6-.1c-2.9 1.5-7 7.2-7 9.9 0 3.7 2.9 8.8 6.2 10.8 7 4.4 16.4-.2 17.5-8.7 1.2-9.3-8.4-16.2-16.7-12z"/><path d="M221.3 237c-4.1 2.4-5.3 4.8-5.3 10.3s2.7 9.2 7.9 10.8c7.8 2.3 15.1-3 15.1-10.9 0-9.6-9.6-15.2-17.7-10.2zm33 0c-4 2.4-5.3 4.8-5.3 9.7 0 8.5 7.4 14 15.4 11.3 4.8-1.5 7.6-5.7 7.6-11.2 0-5-1.9-8.2-6-10.3-3.9-2-7.9-1.9-11.7.5zm33.5-.4c-3.4 1.8-5.8 6.2-5.8 10.4 0 10.6 12.6 15.6 20.2 8 2.3-2.3 2.8-3.7 2.8-7.7 0-5.5-1.7-8.6-6-10.8-3.6-1.9-7.7-1.9-11.2.1zm-232 33.2c-3.1 1.9-5.8 6.7-5.8 10.5 0 3.9 4.1 9 8.5 10.6 3.5 1.2 4.5 1.1 7.7-.2 4.1-1.7 7.8-6.8 7.8-10.5 0-9.2-10.5-15.2-18.2-10.4zm31.6 1.5c-7 6.4-4.9 16.5 4.1 19.6 3.5 1.2 4.5 1.1 7.7-.2 4.1-1.7 7.8-6.8 7.8-10.5 0-3.8-3-9.2-6.1-10.7-4.8-2.5-9.5-1.9-13.5 1.8zm32.8.1c-3.2 3-3.7 4-3.7 7.8 0 5.5 2.5 9.5 7.3 11.5 7 2.9 14.9-1.8 15.9-9.4 1-7.5-4.3-13.3-12.2-13.3-2.6 0-4.5.9-7.3 3.4zm33.9-.8c-1.7 1.4-3.6 4.3-4.2 6.4-1.6 5.3 1.1 10.7 6.4 13.4 10.1 4.9 20.4-6.3 15.2-16.4-3.2-6.2-12.1-7.9-17.4-3.4zm35-1.3c-6 3-8.3 11.7-4.7 17.3 2.3 3.4 8 5.7 12.2 4.9 4.6-.8 9.4-6.5 9.4-11.1 0-9.2-9-15.2-16.9-11.1z"/><path d="M222.4 269c-3.9 1.6-6.4 5.9-6.4 11.1 0 4 .5 5.2 3 7.8 1.7 1.7 4.6 3.3 6.4 3.7 4.4.8 10.2-1.9 12.1-5.7 2-3.7 1.9-9.9-.1-12.7-3.1-4.4-9.8-6.3-15-4.2zm98.4.6c-3.5 1.8-5.8 6.2-5.8 10.9 0 2.6.9 4.5 3.4 7.3 3 3.2 4 3.7 7.9 3.7 5.7 0 9.7-2.8 11.5-8 3.4-10.2-7.5-19.1-17-13.9zm-199 33.2c-8.4 5.1-6.6 18.5 2.7 21.1 7.3 2 14.2-2.4 15.2-9.6 1.3-9.9-9.4-16.8-17.9-11.5zm32.3.7c-8.1 6.8-5.2 18.4 5.1 20.9 3.3.7 8.5-1.2 11.1-4.2 2.7-2.9 3.3-9.2 1.3-13-3.3-6.3-12.1-8.2-17.5-3.7zm33 .1c-5.6 4.7-6 12.3-1 17.3 5.2 5.3 13 4.6 17.8-1.5 3.4-4.3 2.5-11.7-1.8-15.6-4.3-3.8-10.6-3.9-15-.2zm32.3.8c-2.8 2.8-3.4 4.2-3.4 7.5 0 7 2.8 10.7 9.7 12.6 3 .8 8.5-1.7 11.1-5 1.5-1.9 2.2-4.2 2.2-7.2 0-3.8-.5-5-3.4-7.9s-4.1-3.4-8.1-3.4-5.2.5-8.1 3.4zm33 0c-2.9 2.9-3.4 4.1-3.4 7.9 0 8.6 7.9 14.3 15.7 11.2 4.8-1.9 7.3-5.9 7.3-11.5 0-3.4-.6-4.8-3.4-7.6-2.9-2.9-4.1-3.4-8.1-3.4s-5.2.5-8.1 3.4zm-164 31.5c-6.5 4-6.7 14.6-.5 19 3.5 2.5 10.7 2.8 13.9.5 1.2-.8 2.9-2.8 3.7-4.4 5.6-10.9-6.5-21.6-17.1-15.1z"/><use xlink:href="#B" y="230"/><path d="M187.1 336.5c-4.3 3.7-5.6 8.3-3.6 13.2 1.9 4.8 5.9 7.3 11.5 7.3 3.4 0 4.8-.6 7.6-3.4 2.9-2.9 3.4-4.1 3.4-8.1s-.5-5.2-3.4-8.1-4.1-3.4-7.9-3.4c-3.4 0-5.3.6-7.6 2.5z"/><use xlink:href="#C" y="230"/><path d="M124.3 367.1c-9.2 2.6-10.7 17-2.2 21.4 11 5.7 22.3-5.8 15.9-16.2-2.9-4.9-8-6.8-13.7-5.2zm99.3.4c-2.1.7-3.9 1.5-4 1.7-2.7 3.5-3.6 6-3.6 9.6 0 3.7.6 5 3.4 7.8 2.9 2.9 4.1 3.4 8.1 3.4s5.2-.5 8.1-3.4 3.4-4.1 3.4-8c0-8.3-7.6-13.8-15.4-11.1zm-34.8 1.1c-8.3 4.4-7.2 17.5 1.7 20.4 4.5 1.5 8.2.6 11.7-2.7 9.5-9-1.9-24-13.4-17.7zm.7 31.8c-3.3 1.4-5.8 4.6-6.7 8.4-1.7 6.3 4.4 14.2 10.8 14.2 13.5 0 17.2-17.4 4.8-22.6-4-1.7-5-1.7-8.9 0zm0 33c-10.8 4.7-8.4 20.7 3.2 22.3 13.1 1.7 18.6-16.5 6.7-22.2-3.9-1.8-5.9-1.8-9.9-.1z"/></g><defs ><path id="B" d="M121.9 105.5c-2.7 1.5-5.9 6.9-5.9 10 0 3.2 3.3 8.6 6.1 10 3.7 2 9.9 1.9 12.7-.1 2.8-1.9 5.2-6.5 5.2-9.9s-2.4-8-5.2-9.9c-2.8-2-9.4-2-12.9-.1z"/><path id="C" d="M219.4 107.4c-2.9 2.9-3.4 4.1-3.4 8.1s.5 5.2 3.4 8.1 4.1 3.4 8.1 3.4 5.2-.5 8.1-3.4 3.4-4.1 3.4-8.1-.5-5.2-3.4-8.1-4.1-3.4-8.1-3.4-5.2.5-8.1 3.4z"/></defs>
</svg>
